<?xml version="1.0" encoding="UTF-8"?>
<svg version="1.1" xmlns="http://www.w3.org/2000/svg" width="552" height="319">
<path d="M0 0 C182.16 0 364.32 0 552 0 C552 105.27 552 210.54 552 319 C369.84 319 187.68 319 0 319 C0 213.73 0 108.46 0 0 Z " fill="#FDFDFD" transform="translate(0,0)"/>
<path d="M0 0 C124.41 0 248.82 0 377 0 C377 15.84 377 31.68 377 48 C375.43605833 45.65408749 374.3756088 43.66255669 373.25 41.125 C370.45929728 35.5741497 366.8703256 32.4418913 361.06689453 30.39526367 C352.49165555 27.94476579 343.39519461 28.51667681 334.5546875 28.48828125 C332.5735667 28.47141491 330.59245647 28.45326207 328.61135864 28.43388367 C323.42638453 28.38658979 318.24145331 28.35664746 313.05633545 28.33044434 C306.81939942 28.29526487 300.582628 28.23831126 294.3458252 28.18505096 C284.89723834 28.10677904 275.4488634 28.0559904 266 28 C266 43.18 266 58.36 266 74 C277.89085795 73.9381763 277.89085795 73.9381763 289.78125 73.83984375 C294.6354196 73.79160971 299.48936424 73.74752741 304.34375 73.72900391 C308.26032022 73.71378896 312.17629943 73.67925909 316.09260559 73.63169098 C317.58196354 73.61692672 319.0714059 73.60896184 320.56083679 73.60811615 C328.5544403 73.59901798 335.16513121 73.56686493 342 69 C343.8810068 66.97613931 343.8810068 66.97613931 344.9375 64.75 C345.61370891 63.49385599 346.29773859 62.24176695 347 61 C347.33 61 347.66 61 348 61 C348 78.82 348 96.64 348 115 C346 112 346 112 344.375 109 C341.37238742 105.20722621 338.60013012 104.02887385 334 103 C328.78229605 102.53950517 323.57699439 102.51031019 318.34375 102.48828125 C316.83059247 102.47141309 315.31744878 102.45326 313.80432129 102.43388367 C309.8457471 102.38660907 305.88722901 102.35665468 301.9284668 102.33044434 C297.87928189 102.30052425 293.83028984 102.2540336 289.78125 102.20898438 C281.85426194 102.12320815 273.92725586 102.05574958 266 102 C266.09433802 106.12632982 266.20059804 110.25217263 266.31738281 114.37792969 C266.35540313 115.77823735 266.39030034 117.17863374 266.421875 118.57910156 C266.40478492 133.09461754 266.40478492 133.09461754 273.13671875 145.390625 C276.40488335 148.21344222 280.12688182 150.13229634 284 152 C284 152.33 284 152.66 284 153 C258.59 153 233.18 153 207 153 C207 152.67 207 152.34 207 152 C207.66386719 151.84144531 208.32773437 151.68289062 209.01171875 151.51953125 C214.64258503 150.03166731 218.24957284 148.71827933 222 144 C225.0122505 137.97549901 222.07450397 131.33226336 220.16796875 125.37890625 C218.84830281 121.56114357 217.41833141 117.78221709 216 114 C194.22 114 172.44 114 150 114 C143.03731077 129.45068894 143.03731077 129.45068894 144.375 145.25 C148.01158458 149.05975528 152.05885042 150.39695529 157 152 C157 152.33 157 152.66 157 153 C119.38 153 81.76 153 43 153 C44.99704988 151.00295012 46.33909237 150.31191187 48.875 149.1875 C52.61977836 147.33546288 54.82712648 145.67717057 57 142 C58.94321028 135.69957529 59.30410909 129.92772024 59.31884766 123.36132812 C59.33391609 121.80875809 59.33391609 121.80875809 59.34928894 120.224823 C59.38001073 116.82697062 59.39712555 113.42919665 59.4140625 110.03125 C59.43278298 107.66613089 59.45235705 105.30101839 59.4727478 102.93591309 C59.52398185 96.72835193 59.56365434 90.52076915 59.60089111 84.31311035 C59.64098546 77.97170702 59.69205302 71.630393 59.7421875 65.2890625 C59.83884349 52.85943782 59.92328133 40.42976261 60 28 C54.50423003 28.04450327 49.00957097 28.11469739 43.5144043 28.20751953 C41.64958596 28.23554254 39.78465296 28.2568488 37.91967773 28.27099609 C21.70458749 27.88782189 21.70458749 27.88782189 7.3503418 34.37548828 C4.54205739 37.49399901 2.71859709 41.20099591 1 45 C0.67 45 0.34 45 0 45 C0 30.15 0 15.3 0 0 Z " fill="#020C45" transform="translate(84,59)"/>
<path d="M0 0 C39 0 39 0 42 1 C41.35889285 6.57990165 39.46286704 11.40144726 37.4140625 16.58203125 C37.04497772 17.52925552 36.67589294 18.4764798 36.29562378 19.45240784 C35.07764121 22.57464333 33.85152462 25.69361127 32.625 28.8125 C31.33920868 32.09734345 30.05499217 35.38279994 28.77081299 38.66827393 C27.88022564 40.9461878 26.98889757 43.22381221 26.09686279 45.50115967 C22.90147887 53.66574018 19.74990229 61.84635018 16.6171875 70.03515625 C15.32817776 73.39539724 14.03854205 76.75539733 12.74871826 80.11532593 C11.91771104 82.28460044 11.0892908 84.45486779 10.26348877 86.62612915 C9.10999062 89.65723515 7.94672129 92.68441903 6.78125 95.7109375 C6.44141083 96.61179581 6.10157166 97.51265411 5.75143433 98.44081116 C5.43191803 99.26520187 5.11240173 100.08959259 4.78320312 100.93896484 C4.37285828 102.01300064 4.37285828 102.01300064 3.95422363 103.10873413 C3 105 3 105 0 108 C0 72.36 0 36.72 0 0 Z " fill="#FCFCFD" transform="translate(183,87)"/>
<path d="M0 0 C2.8285832 2.43022285 3.89298793 4.77609939 5.17651367 8.25 C5.57670212 9.32121094 5.97689056 10.39242187 6.38920593 11.49609375 C6.81119766 12.65238281 7.23318939 13.80867188 7.66796875 15 C8.10764481 16.18722656 8.54732086 17.37445313 9.00032043 18.59765625 C9.92795782 21.10800925 10.85231644 23.61928509 11.77124023 26.1328125 C12.94922813 29.35422799 14.13883456 32.57119642 15.33240795 35.78686523 C16.47034753 38.85597713 17.60023123 41.92804498 18.73046875 45 C19.37256538 46.73443359 19.37256538 46.73443359 20.02763367 48.50390625 C20.41836563 49.57511719 20.8090976 50.64632812 21.21166992 51.75 C21.55791916 52.69359375 21.9041684 53.6371875 22.26091003 54.609375 C23 57 23 57 23 60 C8.48 60 -6.04 60 -21 60 C-19.87495809 52.12470664 -19.87495809 52.12470664 -18.48120117 48.41674805 C-18.17385544 47.58866135 -17.8665097 46.76057465 -17.54985046 45.90739441 C-17.2175795 45.03432144 -16.88530853 44.16124847 -16.54296875 43.26171875 C-16.02661613 41.88050591 -16.02661613 41.88050591 -15.49983215 40.47138977 C-14.40232289 37.54089908 -13.29495014 34.61424636 -12.1875 31.6875 C-11.45445372 29.73265591 -10.72202587 27.77757979 -9.99023438 25.82226562 C-6.74723865 17.17816108 -3.45718684 8.56110495 0 0 Z " fill="#F6F7F8" transform="translate(266,84)"/>
<path d="M0 0 C1.65 0 3.3 0 5 0 C5.99 3.3 6.98 6.6 8 10 C8.66 10 9.32 10 10 10 C10.12375 9.278125 10.2475 8.55625 10.375 7.8125 C10.9904931 5.04278106 11.88444374 2.6029646 13 0 C14.65 0 16.3 0 18 0 C18 5.28 18 10.56 18 16 C16.68 16 15.36 16 14 16 C13.67 14.02 13.34 12.04 13 10 C12.34 11.98 11.68 13.96 11 16 C9.68 16 8.36 16 7 16 C6.34 14.35 5.68 12.7 5 11 C4.67 12.65 4.34 14.3 4 16 C2.68 16 1.36 16 0 16 C0 10.72 0 5.44 0 0 Z " fill="#CF1010" transform="translate(448,226)"/>
<path d="M0 0 C4.79015783 1.45156298 8.8444233 4.12656699 12 8 C15.01684152 14.31109375 15.38375355 19.57577221 15.1875 26.5 C15.17396484 27.4178125 15.16042969 28.335625 15.14648438 29.28125 C15.11148097 31.52146803 15.06238869 33.76040594 15 36 C12.40900166 33.40900166 11.48648422 30.49076315 10.21484375 27.12890625 C9.95369278 26.45077377 9.69254181 25.7726413 9.42347717 25.07395935 C8.58980918 22.90535633 7.76366338 20.73397159 6.9375 18.5625 C6.37742734 17.10333352 5.81688592 15.64434687 5.25585938 14.18554688 C1.2433143 3.72994291 1.2433143 3.72994291 0 0 Z " fill="#F1F1F4" transform="translate(297,60)"/>
<path d="M0 0 C1.588125 -0.061875 3.17625 -0.12375 4.8125 -0.1875 C6.15248047 -0.23970703 6.15248047 -0.23970703 7.51953125 -0.29296875 C10 0 10 0 11.83984375 1.359375 C13 3 13 3 12.75 5.4375 C12.29651275 6.98691477 11.82302295 8.53093116 11.3125 10.0625 C10.90127473 12.61209669 11.68654362 13.83666008 13 16 C11.35 16 9.7 16 8 16 C7.34 14.02 6.68 12.04 6 10 C5.34 10 4.68 10 4 10 C4 11.98 4 13.96 4 16 C2.68 16 1.36 16 0 16 C0 10.72 0 5.44 0 0 Z " fill="#D42B2B" transform="translate(427,226)"/>
<path d="M0 0 C1.423125 -0.061875 2.84625 -0.12375 4.3125 -0.1875 C5.51326172 -0.23970703 5.51326172 -0.23970703 6.73828125 -0.29296875 C9 0 9 0 10.80859375 1.359375 C12 3 12 3 11.75 5.4375 C11.29651275 6.98691477 10.82302295 8.53093116 10.3125 10.0625 C9.90127473 12.61209669 10.68654362 13.83666008 12 16 C10.35 16 8.7 16 7 16 C6.34 14.68 5.68 13.36 5 12 C4.67 13.32 4.34 14.64 4 16 C2.68 16 1.36 16 0 16 C0 10.72 0 5.44 0 0 Z " fill="#D32727" transform="translate(182,226)"/>
<path d="M0 0 C8 0 8 0 11 1 C11.33 3.31 11.66 5.62 12 8 C11.01 8.33 10.02 8.66 9 9 C9.99 11.31 10.98 13.62 12 16 C9.625 15.75 9.625 15.75 7 15 C5.6875 12.9375 5.6875 12.9375 5 11 C4.67 12.65 4.34 14.3 4 16 C2.68 16 1.36 16 0 16 C0 10.72 0 5.44 0 0 Z " fill="#D22222" transform="translate(360,226)"/>
<path d="M0 0 C1.32 0 2.64 0 4 0 C4 1.98 4 3.96 4 6 C5.98 6 7.96 6 10 6 C10 4.02 10 2.04 10 0 C11.32 0 12.64 0 14 0 C14 5.28 14 10.56 14 16 C12.68 16 11.36 16 10 16 C10 14.02 10 12.04 10 10 C8.02 10 6.04 10 4 10 C4 11.98 4 13.96 4 16 C2.68 16 1.36 16 0 16 C0 10.72 0 5.44 0 0 Z " fill="#D01414" transform="translate(223,226)"/>
<path d="M0 0 C1.32 0 2.64 0 4 0 C4 1.98 4 3.96 4 6 C5.65 6 7.3 6 9 6 C9 4.02 9 2.04 9 0 C10.32 0 11.64 0 13 0 C13 5.28 13 10.56 13 16 C11.68 16 10.36 16 9 16 C9 14.02 9 12.04 9 10 C7.35 10 5.7 10 4 10 C4 11.98 4 13.96 4 16 C2.68 16 1.36 16 0 16 C0 10.72 0 5.44 0 0 Z " fill="#D22121" transform="translate(106,226)"/>
<path d="M0 0 C2.38671875 0.03515625 2.38671875 0.03515625 5 1 C6.58203125 3.87109375 6.58203125 3.87109375 7.8125 7.4375 C8.23144531 8.61183594 8.65039062 9.78617188 9.08203125 10.99609375 C10 14 10 14 10 16 C8.68 16 7.36 16 6 16 C5.67 15.34 5.34 14.68 5 14 C1.97065509 13.34227572 1.97065509 13.34227572 -1 13 C-1.33 13.99 -1.66 14.98 -2 16 C-3.32 15.67 -4.64 15.34 -6 15 C-5.19093245 12.68624595 -4.37793083 10.37401052 -3.5625 8.0625 C-3.33240234 7.40314453 -3.10230469 6.74378906 -2.86523438 6.06445312 C-1.11328125 1.11328125 -1.11328125 1.11328125 0 0 Z " fill="#D22121" transform="translate(164,226)"/>
<path d="M0 0 C2.97 0 5.94 0 9 0 C9 0.66 9 1.32 9 2 C8.34 2 7.68 2 7 2 C7 4.31 7 6.62 7 9 C6.01 9 5.02 9 4 9 C4 7.02 4 5.04 4 3 C3.34 3 2.68 3 2 3 C2 4.98 2 6.96 2 9 C0.125 8.6875 0.125 8.6875 -2 8 C-2.66 7.01 -3.32 6.02 -4 5 C-4.33 6.32 -4.66 7.64 -5 9 C-7.97 9 -10.94 9 -14 9 C-14 6.36 -14 3.72 -14 1 C-12.3973218 0.89175157 -10.79254252 0.81429355 -9.1875 0.75 C-8.29417969 0.70359375 -7.40085937 0.6571875 -6.48046875 0.609375 C-4 1 -4 1 -2.17578125 3.015625 C-1.59376953 3.99789063 -1.59376953 3.99789063 -1 5 C-0.67 3.35 -0.34 1.7 0 0 Z " fill="#D1D1D1" transform="translate(492,254)"/>
<path d="M0 0 C1.32 0 2.64 0 4 0 C4 3.96 4 7.92 4 12 C5.65 12 7.3 12 9 12 C9 8.04 9 4.08 9 0 C10.32 0 11.64 0 13 0 C13.08133791 1.91595968 13.13934367 3.83291932 13.1875 5.75 C13.22230469 6.81734375 13.25710938 7.8846875 13.29296875 8.984375 C12.96647941 12.34503863 12.42145523 13.67828434 10 16 C4.12919897 16.73385013 4.12919897 16.73385013 1.29296875 14.890625 C-0.64477192 12.05719151 -0.28798841 9.69560996 -0.1875 6.3125 C-0.16042969 5.13300781 -0.13335937 3.95351562 -0.10546875 2.73828125 C-0.07066406 1.83464844 -0.03585937 0.93101562 0 0 Z " fill="#CF1313" transform="translate(338,226)"/>
<path d="M0 0 C2.875 1.875 2.875 1.875 5 4 C5 4.66 5 5.32 5 6 C1.7 5.67 -1.6 5.34 -5 5 C-5 6.98 -5 8.96 -5 11 C-3.10820797 11.6814823 -3.10820797 11.6814823 -1 12 C-0.34 11.34 0.32 10.68 1 10 C2.32 10 3.64 10 5 10 C3.84826645 12.46800047 2.95216435 14.04783565 1 16 C-2.81884318 16.42431591 -5.12405448 16.5390434 -8.4375 14.5 C-10.63559176 10.98305319 -10.81157964 8.04133533 -10 4 C-7.30203057 -0.15072221 -4.80768487 -0.78492814 0 0 Z " fill="#D11B1B" transform="translate(210,226)"/>
<path d="M0 0 C2.875 1.875 2.875 1.875 5 4 C5 4.66 5 5.32 5 6 C1.7 5.67 -1.6 5.34 -5 5 C-5 6.98 -5 8.96 -5 11 C-3.10820797 11.6814823 -3.10820797 11.6814823 -1 12 C-0.34 11.34 0.32 10.68 1 10 C2.32 10 3.64 10 5 10 C3.25 14.875 3.25 14.875 1 16 C-3.0130324 16.53507099 -4.53928033 16.33051628 -7.875 13.9375 C-10 11 -10 11 -10.5625 7.4375 C-10 4 -10 4 -8.375 1.5625 C-5.26456309 -0.48384007 -3.66322334 -0.59807728 0 0 Z " fill="#D01717" transform="translate(303,226)"/>
<path d="M0 0 C3.875 1.875 3.875 1.875 5 3 C5.33 2.01 5.66 1.02 6 0 C6.66 0 7.32 0 8 0 C8.33 1.65 8.66 3.3 9 5 C9.66 3.35 10.32 1.7 11 0 C12.9375 0.3125 12.9375 0.3125 15 1 C15.33 1.99 15.66 2.98 16 4 C16.391875 3.34 16.78375 2.68 17.1875 2 C19 0 19 0 21.6875 -0.25 C22.450625 -0.1675 23.21375 -0.085 24 0 C23.67 0.66 23.34 1.32 23 2 C22.01 2 21.02 2 20 2 C19.67 3.32 19.34 4.64 19 6 C19.99 5.67 20.98 5.34 22 5 C22 4.34 22 3.68 22 3 C23.32 3 24.64 3 26 3 C25.34 4.65 24.68 6.3 24 8 C21 8 18 8 15 8 C15 7.34 15 6.68 15 6 C13.68 6 12.36 6 11 6 C11 6.66 11 7.32 11 8 C6.44615385 8.36923077 6.44615385 8.36923077 4.1875 6.5 C3.795625 6.005 3.40375 5.51 3 5 C2.67 5.99 2.34 6.98 2 8 C1.34 8 0.68 8 0 8 C0 5.36 0 2.72 0 0 Z " fill="#4C4C4C" transform="translate(433,255)"/>
<path d="M0 0 C1.27875 0.00257813 2.5575 0.00515625 3.875 0.0078125 C5.15375 0.00523437 6.4325 0.00265625 7.75 0 C10.875 0.1328125 10.875 0.1328125 11.875 1.1328125 C12 4.1328125 12 4.1328125 11.875 7.1328125 C10.875 8.1328125 10.875 8.1328125 7.75 8.265625 C6.47125 8.26304687 5.1925 8.26046875 3.875 8.2578125 C2.59625 8.26039063 1.3175 8.26296875 0 8.265625 C-3.125 8.1328125 -3.125 8.1328125 -4.125 7.1328125 C-4.25 4.1328125 -4.25 4.1328125 -4.125 1.1328125 C-3.125 0.1328125 -3.125 0.1328125 0 0 Z " fill="#EAEAEA" transform="translate(163.125,254.8671875)"/>
<path d="M0 0 C3.3 0 6.6 0 10 0 C10 0.99 10 1.98 10 3 C8.02 3 6.04 3 4 3 C4 3.99 4 4.98 4 6 C5.65 6 7.3 6 9 6 C9 7.32 9 8.64 9 10 C7.35 10 5.7 10 4 10 C4 10.99 4 11.98 4 13 C5.98 13 7.96 13 10 13 C10 13.99 10 14.98 10 16 C6.7 16 3.4 16 0 16 C0 10.72 0 5.44 0 0 Z " fill="#D01616" transform="translate(128,226)"/>
<path d="M0 0 C3.3 0 6.6 0 10 0 C10 0.99 10 1.98 10 3 C8.02 3 6.04 3 4 3 C4 4.32 4 5.64 4 7 C5.65 7 7.3 7 9 7 C9 7.99 9 8.98 9 10 C7.35 10 5.7 10 4 10 C4 10.99 4 11.98 4 13 C5.98 13 7.96 13 10 13 C10 13.99 10 14.98 10 16 C6.7 16 3.4 16 0 16 C0 10.72 0 5.44 0 0 Z " fill="#D01818" transform="translate(378,226)"/>
<path d="M0 0 C3.3 0 6.6 0 10 0 C10 0.99 10 1.98 10 3 C8.02 3 6.04 3 4 3 C4 4.32 4 5.64 4 7 C5.65 7 7.3 7 9 7 C9 7.99 9 8.98 9 10 C7.35 10 5.7 10 4 10 C4 10.99 4 11.98 4 13 C5.98 13 7.96 13 10 13 C10 13.99 10 14.98 10 16 C6.7 16 3.4 16 0 16 C0 10.72 0 5.44 0 0 Z " fill="#D01818" transform="translate(275,226)"/>
<path d="M0 0 C0.66 0 1.32 0 2 0 C4.0625 0.375 4.0625 0.375 6 1 C6.33 1.66 6.66 2.32 7 3 C7.33 2.01 7.66 1.02 8 0 C8.66 0 9.32 0 10 0 C10 2.64 10 5.28 10 8 C6.125 6.25 6.125 6.25 5 4 C4.67 5.32 4.34 6.64 4 8 C2.68 8 1.36 8 0 8 C-1.299375 8.061875 -1.299375 8.061875 -2.625 8.125 C-5 8 -5 8 -7 6 C-7.125 3.375 -7.125 3.375 -7 1 C-4.5208901 -0.23955495 -2.7458063 -0.06864516 0 0 Z " fill="#3D3D3D" transform="translate(244,255)"/>
<path d="M0 0 C3.3 0 6.6 0 10 0 C10 0.99 10 1.98 10 3 C8.02 3 6.04 3 4 3 C4 3.99 4 4.98 4 6 C5.65 6 7.3 6 9 6 C9 7.32 9 8.64 9 10 C7.35 10 5.7 10 4 10 C4 11.98 4 13.96 4 16 C2.68 16 1.36 16 0 16 C0 10.72 0 5.44 0 0 Z " fill="#D11B1B" transform="translate(403,226)"/>
<path d="M0 0 C3.3 0 6.6 0 10 0 C10.33 0.99 10.66 1.98 11 3 C11.66 3 12.32 3 13 3 C13.33 2.01 13.66 1.02 14 0 C14.66 0 15.32 0 16 0 C16 2.64 16 5.28 16 8 C15.34 7.01 14.68 6.02 14 5 C12.68 5 11.36 5 10 5 C9.67 5.99 9.34 6.98 9 8 C6.03 8 3.06 8 0 8 C0 5.36 0 2.72 0 0 Z " fill="#7B7B7B" transform="translate(460,255)"/>
<path d="M0 0 C2.05078125 0.03255208 4.1015625 0.06510417 6.15234375 0.09765625 C6.15234375 1.08765625 6.15234375 2.07765625 6.15234375 3.09765625 C7.47234375 3.09765625 8.79234375 3.09765625 10.15234375 3.09765625 C10.15234375 2.10765625 10.15234375 1.11765625 10.15234375 0.09765625 C10.81234375 0.09765625 11.47234375 0.09765625 12.15234375 0.09765625 C12.15234375 2.73765625 12.15234375 5.37765625 12.15234375 8.09765625 C11.49234375 8.09765625 10.83234375 8.09765625 10.15234375 8.09765625 C10.15234375 7.10765625 10.15234375 6.11765625 10.15234375 5.09765625 C9.16234375 5.09765625 8.17234375 5.09765625 7.15234375 5.09765625 C7.15234375 6.08765625 7.15234375 7.07765625 7.15234375 8.09765625 C5.69441491 8.15165361 4.23591663 8.19044802 2.77734375 8.22265625 C1.96523437 8.24585938 1.153125 8.2690625 0.31640625 8.29296875 C-1.84765625 8.09765625 -1.84765625 8.09765625 -3.84765625 6.09765625 C-3.12417691 0.16512563 -3.12417691 0.16512563 0 0 Z " fill="#909090" transform="translate(70.84765625,254.90234375)"/>
<path d="M0 0 C4.29 0 8.58 0 13 0 C13 0.99 13 1.98 13 3 C11.35 3 9.7 3 8 3 C8 7.29 8 11.58 8 16 C6.68 16 5.36 16 4 16 C4 11.71 4 7.42 4 3 C2.68 3 1.36 3 0 3 C0 2.01 0 1.02 0 0 Z " fill="#D21F1F" transform="translate(255,226)"/>
<path d="M0 0 C4.29 0 8.58 0 13 0 C13 0.99 13 1.98 13 3 C11.68 3 10.36 3 9 3 C9 7.29 9 11.58 9 16 C7.68 16 6.36 16 5 16 C5 11.71 5 7.42 5 3 C3.35 3 1.7 3 0 3 C0 2.01 0 1.02 0 0 Z " fill="#D11D1D" transform="translate(83,226)"/>
<path d="M0 0 C3.96 0 7.92 0 12 0 C12 0.99 12 1.98 12 3 C10.68 3 9.36 3 8 3 C8 7.29 8 11.58 8 16 C6.68 16 5.36 16 4 16 C4 11.71 4 7.42 4 3 C2.68 3 1.36 3 0 3 C0 2.01 0 1.02 0 0 Z " fill="#CE0E0E" transform="translate(316,226)"/>
<path d="M0 0 C5.61 0 11.22 0 17 0 C17 0.66 17 1.32 17 2 C15.35 2 13.7 2 12 2 C12 2.66 12 3.32 12 4 C12.99 4.33 13.98 4.66 15 5 C14.01 5 13.02 5 12 5 C12 5.99 12 6.98 12 8 C13.65 8 15.3 8 17 8 C17 8.33 17 8.66 17 9 C14.69 9 12.38 9 10 9 C10 6.69 10 4.38 10 2 C9.01 2 8.02 2 7 2 C7 4.31 7 6.62 7 9 C6.34 9 5.68 9 5 9 C5 7.02 5 5.04 5 3 C4.01 3 3.02 3 2 3 C2 4.98 2 6.96 2 9 C1.34 9 0.68 9 0 9 C0 6.03 0 3.06 0 0 Z " fill="#595959" transform="translate(85,254)"/>
<path d="M0 0 C2.5625 0.1875 2.5625 0.1875 4.5625 2.1875 C4.5625 3.1775 4.5625 4.1675 4.5625 5.1875 C6.2125 5.5175 7.8625 5.8475 9.5625 6.1875 C9.5625 4.2075 9.5625 2.2275 9.5625 0.1875 C10.2225 0.1875 10.8825 0.1875 11.5625 0.1875 C11.6875 5.9375 11.6875 5.9375 10.5625 8.1875 C7.89583333 8.1875 5.22916667 8.1875 2.5625 8.1875 C1.2940625 8.249375 1.2940625 8.249375 0 8.3125 C-2.4375 8.1875 -2.4375 8.1875 -4.4375 6.1875 C-3.71780303 0.28598485 -3.71780303 0.28598485 0 0 Z " fill="#1E1E1E" transform="translate(375.4375,254.8125)"/>
<path d="M0 0 C2.12493141 -0.02693575 4.24995912 -0.04636628 6.375 -0.0625 C7.55835938 -0.07410156 8.74171875 -0.08570313 9.9609375 -0.09765625 C13 0 13 0 15 1 C15 3.64 15 6.28 15 9 C13 9 13 9 11.375 7.5 C10.92125 7.005 10.4675 6.51 10 6 C10 6.99 10 7.98 10 9 C9.34 9 8.68 9 8 9 C8 6.69 8 4.38 8 2 C7.01 2 6.02 2 5 2 C5 4.31 5 6.62 5 9 C4.34 9 3.68 9 3 9 C3 6.69 3 4.38 3 2 C2.01 2 1.02 2 0 2 C0 1.34 0 0.68 0 0 Z " fill="#636363" transform="translate(192,254)"/>
<path d="M0 0 C1.93166016 0.01740234 1.93166016 0.01740234 3.90234375 0.03515625 C5.19269531 0.04417969 6.48304688 0.05320313 7.8125 0.0625 C8.81152344 0.07410156 9.81054688 0.08570313 10.83984375 0.09765625 C10.83984375 0.75765625 10.83984375 1.41765625 10.83984375 2.09765625 C9.18984375 2.09765625 7.53984375 2.09765625 5.83984375 2.09765625 C5.83984375 2.75765625 5.83984375 3.41765625 5.83984375 4.09765625 C6.82984375 4.09765625 7.81984375 4.09765625 8.83984375 4.09765625 C8.83984375 4.75765625 8.83984375 5.41765625 8.83984375 6.09765625 C9.49984375 6.42765625 10.15984375 6.75765625 10.83984375 7.09765625 C10.83984375 7.75765625 10.83984375 8.41765625 10.83984375 9.09765625 C8.52984375 9.09765625 6.21984375 9.09765625 3.83984375 9.09765625 C3.83984375 6.78765625 3.83984375 4.47765625 3.83984375 2.09765625 C2.84984375 2.09765625 1.85984375 2.09765625 0.83984375 2.09765625 C0.83984375 4.40765625 0.83984375 6.71765625 0.83984375 9.09765625 C0.17984375 9.09765625 -0.48015625 9.09765625 -1.16015625 9.09765625 C-1.16015625 6.78765625 -1.16015625 4.47765625 -1.16015625 2.09765625 C-2.15015625 1.76765625 -3.14015625 1.43765625 -4.16015625 1.09765625 C-3.16015625 0.09765625 -3.16015625 0.09765625 0 0 Z " fill="#4B4B4B" transform="translate(291.16015625,253.90234375)"/>
<path d="M0 0 C1.98 0 3.96 0 6 0 C4.68 0.33 3.36 0.66 2 1 C2 1.66 2 2.32 2 3 C2.99 3 3.98 3 5 3 C5 3.66 5 4.32 5 5 C5.66 5.33 6.32 5.66 7 6 C7.144375 5.195625 7.28875 4.39125 7.4375 3.5625 C8 1 8 1 9 0 C10.66617115 -0.04063832 12.33388095 -0.042721 14 0 C13.67 0.66 13.34 1.32 13 2 C12.01 2 11.02 2 10 2 C9.67 3.32 9.34 4.64 9 6 C10.98 6 12.96 6 15 6 C14.67 6.66 14.34 7.32 14 8 C9.38 8 4.76 8 0 8 C0 5.36 0 2.72 0 0 Z " fill="#2C2C2C" transform="translate(388,255)"/>
<path d="M0 0 C1.32 0 2.64 0 4 0 C4 5.28 4 10.56 4 16 C2.68 16 1.36 16 0 16 C0 10.72 0 5.44 0 0 Z " fill="#CF1212" transform="translate(417,226)"/>
<path d="M0 0 C2.5625 0.1875 2.5625 0.1875 4.5625 2.1875 C4.00694444 6.74305556 4.00694444 6.74305556 2.5625 8.1875 C0.125 8.375 0.125 8.375 -2.4375 8.1875 C-3.0975 7.5275 -3.7575 6.8675 -4.4375 6.1875 C-3.71780303 0.28598485 -3.71780303 0.28598485 0 0 Z " fill="#262626" transform="translate(318.4375,254.8125)"/>
<path d="M0 0 C1 1 1 1 1.125 4 C1 7 1 7 0 8 C-2.4375 8.1875 -2.4375 8.1875 -5 8 C-7 6 -7 6 -7.125 3.375 C-7.08375 2.59125 -7.0425 1.8075 -7 1 C-4.51588385 -0.24205807 -2.74800896 -0.14092354 0 0 Z " fill="#292929" transform="translate(174,255)"/>
<path d="M0 0 C0.99 0 1.98 0 3 0 C3.66 0.66 4.32 1.32 5 2 C5.33 1.34 5.66 0.68 6 0 C6.99 0 7.98 0 9 0 C9 2.64 9 5.28 9 8 C8.34 8 7.68 8 7 8 C6.67 7.01 6.34 6.02 6 5 C5.34 5.66 4.68 6.32 4 7 C3.67 6.67 3.34 6.34 3 6 C2.67 6.66 2.34 7.32 2 8 C1.34 8 0.68 8 0 8 C0 5.36 0 2.72 0 0 Z " fill="#252525" transform="translate(414,255)"/>
<path d="M0 0 C0.99 0 1.98 0 3 0 C3 5.28 3 10.56 3 16 C2.01 16 1.02 16 0 16 C0 10.72 0 5.44 0 0 Z " fill="#CC0202" transform="translate(246,226)"/>
<path d="M0 0 C2.97 0 5.94 0 9 0 C9 0.66 9 1.32 9 2 C8.34 2 7.68 2 7 2 C7 4.31 7 6.62 7 9 C6.01 9 5.02 9 4 9 C4 7.02 4 5.04 4 3 C3.34 3 2.68 3 2 3 C2 4.98 2 6.96 2 9 C1.67 9 1.34 9 1 9 C0.67 6.03 0.34 3.06 0 0 Z " fill="#818181" transform="translate(492,254)"/>
<path d="M0 0 C1.98 0 3.96 0 6 0 C6.82638376 2.89234315 7 4.88742431 7 8 C5 8 5 8 3.375 6.5 C2.92125 6.005 2.4675 5.51 2 5 C2 5.99 2 6.98 2 8 C1.34 8 0.68 8 0 8 C0 5.36 0 2.72 0 0 Z " fill="#151515" transform="translate(363,255)"/>
<path d="M0 0 C1.98 0 3.96 0 6 0 C6.82638376 2.89234315 7 4.88742431 7 8 C5 8 5 8 3.375 6.5 C2.92125 6.005 2.4675 5.51 2 5 C2 5.99 2 6.98 2 8 C1.34 8 0.68 8 0 8 C0 5.36 0 2.72 0 0 Z " fill="#151515" transform="translate(324,255)"/>
<path d="M0 0 C1.98 0 3.96 0 6 0 C6.82638376 2.89234315 7 4.88742431 7 8 C5 8 5 8 3.375 6.5 C2.92125 6.005 2.4675 5.51 2 5 C2 5.99 2 6.98 2 8 C1.34 8 0.68 8 0 8 C0 5.36 0 2.72 0 0 Z " fill="#151515" transform="translate(303,255)"/>
<path d="M0 0 C1.98 0 3.96 0 6 0 C6.82638376 2.89234315 7 4.88742431 7 8 C5 8 5 8 3.375 6.5 C2.92125 6.005 2.4675 5.51 2 5 C2 5.99 2 6.98 2 8 C1.34 8 0.68 8 0 8 C0 5.36 0 2.72 0 0 Z " fill="#151515" transform="translate(59,255)"/>
<path d="M0 0 C2.97 0.33 5.94 0.66 9 1 C8.01 1.495 8.01 1.495 7 2 C7 4.31 7 6.62 7 9 C6.34 9 5.68 9 5 9 C5 7.02 5 5.04 5 3 C4.01 3 3.02 3 2 3 C2 4.98 2 6.96 2 9 C1.34 9 0.68 9 0 9 C0 6.03 0 3.06 0 0 Z " fill="#4E4E4E" transform="translate(85,254)"/>
<path d="M0 0 C0.99 0 1.98 0 3 0 C4.25664978 2.90600261 5 4.79604584 5 8 C4.34 8 3.68 8 3 8 C3 7.34 3 6.68 3 6 C1.68 6 0.36 6 -1 6 C-1 6.66 -1 7.32 -1 8 C-1.66 8 -2.32 8 -3 8 C-1.125 1.125 -1.125 1.125 0 0 Z " fill="#3D3D3D" transform="translate(427,255)"/>
<path d="M0 0 C0.99 0 1.98 0 3 0 C4.25664978 2.90600261 5 4.79604584 5 8 C4.34 8 3.68 8 3 8 C3 7.34 3 6.68 3 6 C1.68 6 0.36 6 -1 6 C-1 6.66 -1 7.32 -1 8 C-1.66 8 -2.32 8 -3 8 C-1.125 1.125 -1.125 1.125 0 0 Z " fill="#3D3D3D" transform="translate(53,255)"/>
<path d="M0 0 C1.98 0 3.96 0 6 0 C6 2.64 6 5.28 6 8 C4 8 4 8 2.375 6.5 C1.92125 6.005 1.4675 5.51 1 5 C0.67 5.99 0.34 6.98 0 8 C0 5.36 0 2.72 0 0 Z " fill="#3F3F3F" transform="translate(201,255)"/>
<path d="M0 0 C0.99 0.33 1.98 0.66 3 1 C3 1.66 3 2.32 3 3 C3.66 3 4.32 3 5 3 C5.33 2.01 5.66 1.02 6 0 C6.66 0 7.32 0 8 0 C8 2.64 8 5.28 8 8 C7.34 7.01 6.68 6.02 6 5 C4.68 5 3.36 5 2 5 C1.34 5.99 0.68 6.98 0 8 C0 5.36 0 2.72 0 0 Z " fill="#181818" transform="translate(468,255)"/>
<path d="M0 0 C3 1 3 1 4 3 C4.33 2.01 4.66 1.02 5 0 C5.66 0 6.32 0 7 0 C7 2.64 7 5.28 7 8 C3.125 6.25 3.125 6.25 2 4 C1.34 5.32 0.68 6.64 0 8 C0 5.36 0 2.72 0 0 Z " fill="#1F1F1F" transform="translate(247,255)"/>
<path d="M0 0 C0.66 0 1.32 0 2 0 C2 1.98 2 3.96 2 6 C2.99 6 3.98 6 5 6 C5 4.02 5 2.04 5 0 C5.66 0 6.32 0 7 0 C7.04241723 2.33294775 7.04092937 4.66702567 7 7 C6 8 6 8 3.5 8.125 C1 8 1 8 0 7 C-0.04092937 4.66702567 -0.04241723 2.33294775 0 0 Z " fill="#3A3A3A" transform="translate(119,255)"/>
<path d="M0 0 C3.875 1.875 3.875 1.875 5 3 C5.66 2.01 6.32 1.02 7 0 C7 2.64 7 5.28 7 8 C5.68 7.01 4.36 6.02 3 5 C2.67 5.99 2.34 6.98 2 8 C1.34 8 0.68 8 0 8 C0 5.36 0 2.72 0 0 Z " fill="#212121" transform="translate(433,255)"/>
<path d="M0 0 C0.33 0.99 0.66 1.98 1 3 C2.32 3 3.64 3 5 3 C5 2.01 5 1.02 5 0 C5.66 0 6.32 0 7 0 C7 2.64 7 5.28 7 8 C6.34 8 5.68 8 5 8 C5 7.01 5 6.02 5 5 C4.01 5 3.02 5 2 5 C2 5.99 2 6.98 2 8 C1.34 8 0.68 8 0 8 C0 5.36 0 2.72 0 0 Z " fill="#272727" transform="translate(76,255)"/>
<path d="M0 0 C1.2065625 0.0309375 1.2065625 0.0309375 2.4375 0.0625 C2.1075 0.7225 1.7775 1.3825 1.4375 2.0625 C0.4475 2.0625 -0.5425 2.0625 -1.5625 2.0625 C-1.8925 3.3825 -2.2225 4.7025 -2.5625 6.0625 C-1.5725 5.7325 -0.5825 5.4025 0.4375 5.0625 C0.4375 4.4025 0.4375 3.7425 0.4375 3.0625 C1.7575 3.0625 3.0775 3.0625 4.4375 3.0625 C3.7775 4.7125 3.1175 6.3625 2.4375 8.0625 C0.77138095 8.105221 -0.89632885 8.10313832 -2.5625 8.0625 C-3.5625 7.0625 -3.5625 7.0625 -3.6875 4.0625 C-3.52180824 0.08589776 -3.52180824 0.08589776 0 0 Z " fill="#282828" transform="translate(454.5625,254.9375)"/>
<path d="M0 0 C1.98 0 3.96 0 6 0 C6 0.33 6 0.66 6 1 C4.35 1 2.7 1 1 1 C1 1.66 1 2.32 1 3 C2.32 3 3.64 3 5 3 C5.33 4.65 5.66 6.3 6 8 C4.02 8 2.04 8 0 8 C0 5.36 0 2.72 0 0 Z " fill="#2A2A2A" transform="translate(136,255)"/>
<path d="M0 0 C0 2.64 0 5.28 0 8 C-0.66 7.01 -1.32 6.02 -2 5 C-1.67 4.34 -1.34 3.68 -1 3 C-2.32 3 -3.64 3 -5 3 C-4.67 3.99 -4.34 4.98 -4 6 C-5.32 6 -6.64 6 -8 6 C-7.67 4.35 -7.34 2.7 -7 1 C-4.50935112 0.31292445 -2.62113708 0 0 0 Z " fill="#CECECE" transform="translate(460,255)"/>
<path d="M0 0 C1.4540625 0.0309375 1.4540625 0.0309375 2.9375 0.0625 C2.9375 0.7225 2.9375 1.3825 2.9375 2.0625 C1.2875 2.3925 -0.3625 2.7225 -2.0625 3.0625 C-2.0625 3.7225 -2.0625 4.3825 -2.0625 5.0625 C-0.4125 5.3925 1.2375 5.7225 2.9375 6.0625 C2.6075 6.7225 2.2775 7.3825 1.9375 8.0625 C0.27138095 8.105221 -1.39632885 8.10313832 -3.0625 8.0625 C-4.0625 7.0625 -4.0625 7.0625 -4.1875 4.0625 C-4.02164894 0.08207447 -4.02164894 0.08207447 0 0 Z " fill="#363636" transform="translate(163.0625,254.9375)"/>
<path d="M0 0 C1.4540625 0.0309375 1.4540625 0.0309375 2.9375 0.0625 C2.9375 0.7225 2.9375 1.3825 2.9375 2.0625 C1.2875 2.3925 -0.3625 2.7225 -2.0625 3.0625 C-2.0625 3.7225 -2.0625 4.3825 -2.0625 5.0625 C-0.4125 5.3925 1.2375 5.7225 2.9375 6.0625 C2.6075 6.7225 2.2775 7.3825 1.9375 8.0625 C0.27138095 8.105221 -1.39632885 8.10313832 -3.0625 8.0625 C-4.0625 7.0625 -4.0625 7.0625 -4.1875 4.0625 C-4.02164894 0.08207447 -4.02164894 0.08207447 0 0 Z " fill="#363636" transform="translate(107.0625,254.9375)"/>
<path d="M0 0 C3.875 1.75 3.875 1.75 5 4 C5.66 2.68 6.32 1.36 7 0 C7 2.64 7 5.28 7 8 C4 7 4 7 2 4 C1.34 5.32 0.68 6.64 0 8 C0 5.36 0 2.72 0 0 Z " fill="#101010" transform="translate(486,255)"/>
<path d="M0 0 C3.875 1.75 3.875 1.75 5 4 C5.66 2.68 6.32 1.36 7 0 C7 2.64 7 5.28 7 8 C4 7 4 7 2 4 C1.34 5.32 0.68 6.64 0 8 C0 5.36 0 2.72 0 0 Z " fill="#101010" transform="translate(279,255)"/>
<path d="M0 0 C3.875 1.75 3.875 1.75 5 4 C5.66 2.68 6.32 1.36 7 0 C7 2.64 7 5.28 7 8 C4 7 4 7 2 4 C1.34 5.32 0.68 6.64 0 8 C0 5.36 0 2.72 0 0 Z " fill="#101010" transform="translate(177,255)"/>
<path d="M0 0 C1.65 0 3.3 0 5 0 C5.38218767 1.65614657 5.71395102 3.32457024 6 5 C5 6 5 6 2.4375 6.0625 C1.2309375 6.0315625 1.2309375 6.0315625 0 6 C0 4.02 0 2.04 0 0 Z " fill="#BEBEBE" transform="translate(97,256)"/>
<path d="M0 0 C1.98 0 3.96 0 6 0 C4.68 0.33 3.36 0.66 2 1 C2 1.66 2 2.32 2 3 C2.99 3 3.98 3 5 3 C5 3.66 5 4.32 5 5 C4.01 5 3.02 5 2 5 C2 5.66 2 6.32 2 7 C3.32 7.33 4.64 7.66 6 8 C4.02 8 2.04 8 0 8 C0 5.36 0 2.72 0 0 Z " fill="#191919" transform="translate(478,255)"/>
<path d="M0 0 C1.65 0 3.3 0 5 0 C4.67 0.66 4.34 1.32 4 2 C3.01 1.67 2.02 1.34 1 1 C1 1.66 1 2.32 1 3 C2.65 3.33 4.3 3.66 6 4 C5.67 5.32 5.34 6.64 5 8 C3.35 8 1.7 8 0 8 C-0.33 7.34 -0.66 6.68 -1 6 C1.475 6.495 1.475 6.495 4 7 C2.74458443 4.48916886 1.49936512 4.12874554 -1 3 C-0.67 2.01 -0.34 1.02 0 0 Z " fill="#242424" transform="translate(333,255)"/>
<path d="M0 0 C1.65 0 3.3 0 5 0 C4.67 0.66 4.34 1.32 4 2 C3.01 1.67 2.02 1.34 1 1 C1 1.66 1 2.32 1 3 C2.65 3.33 4.3 3.66 6 4 C5.67 5.32 5.34 6.64 5 8 C3.35 8 1.7 8 0 8 C-0.33 7.34 -0.66 6.68 -1 6 C1.475 6.495 1.475 6.495 4 7 C2.74458443 4.48916886 1.49936512 4.12874554 -1 3 C-0.67 2.01 -0.34 1.02 0 0 Z " fill="#202020" transform="translate(186,255)"/>
<path d="M0 0 C0.66 0 1.32 0 2 0 C2.125 5.75 2.125 5.75 1 8 C-1.375 8.125 -1.375 8.125 -4 8 C-4.66 7.34 -5.32 6.68 -6 6 C-5.625 3.875 -5.625 3.875 -5 2 C-5 2.99 -5 3.98 -5 5 C-3.35 5.33 -1.7 5.66 0 6 C0 4.02 0 2.04 0 0 Z " fill="#3C3C3C" transform="translate(385,255)"/>
<path d="M0 0 C0 2.31 0 4.62 0 7 C-2.97 6.505 -2.97 6.505 -6 6 C-5.01 5.67 -4.02 5.34 -3 5 C-3 4.34 -3 3.68 -3 3 C-3.99 3 -4.98 3 -6 3 C-6 2.34 -6 1.68 -6 1 C-1.125 0 -1.125 0 0 0 Z " fill="#E8E8E8" transform="translate(303,255)"/>
<path d="M0 0 C0.99 0.33 1.98 0.66 3 1 C3 1.99 3 2.98 3 4 C4.32 4.66 5.64 5.32 7 6 C7 6.66 7 7.32 7 8 C5.02 8.33 3.04 8.66 1 9 C0.67 6.03 0.34 3.06 0 0 Z " fill="#D3D3D3" transform="translate(183,254)"/>
<path d="M0 0 C0.33 0 0.66 0 1 0 C1.33 1.65 1.66 3.3 2 5 C2.99 4.01 3.98 3.02 5 2 C5 2.99 5 3.98 5 5 C5.99 5.33 6.98 5.66 8 6 C6.68 6 5.36 6 4 6 C4 6.66 4 7.32 4 8 C2.68 8 1.36 8 0 8 C0 5.36 0 2.72 0 0 Z " fill="#454545" transform="translate(440,255)"/>
<path d="M0 0 C0.99 0 1.98 0 3 0 C3.33 1.98 3.66 3.96 4 6 C2.02 6.99 2.02 6.99 0 8 C0 5.36 0 2.72 0 0 Z " fill="#2C2C2C" transform="translate(414,255)"/>
<path d="M0 0 C1.98 0.495 1.98 0.495 4 1 C4 2.32 4 3.64 4 5 C2.35 5 0.7 5 -1 5 C-0.67 3.35 -0.34 1.7 0 0 Z " fill="#E2E2E2" transform="translate(374,256)"/>
<path d="M0 0 C1.98 0.495 1.98 0.495 4 1 C4 2.32 4 3.64 4 5 C2.35 5 0.7 5 -1 5 C-0.67 3.35 -0.34 1.7 0 0 Z " fill="#E5E5E5" transform="translate(317,256)"/>
<path d="M0 0 C0.99 0 1.98 0 3 0 C3.33 1.32 3.66 2.64 4 4 C2.35 4.33 0.7 4.66 -1 5 C-0.67 3.35 -0.34 1.7 0 0 Z " fill="#E7E7E7" transform="translate(240,256)"/>
<path d="M0 0 C0.99 0 1.98 0 3 0 C3.33 1.32 3.66 2.64 4 4 C2.35 4.33 0.7 4.66 -1 5 C-0.67 3.35 -0.34 1.7 0 0 Z " fill="#E7E7E7" transform="translate(170,256)"/>
<path d="M0 0 C1.32 0 2.64 0 4 0 C3.67 1.32 3.34 2.64 3 4 C2.34 4 1.68 4 1 4 C0.67 4.99 0.34 5.98 0 7 C0 4.69 0 2.38 0 0 Z " fill="#7B7B7B" transform="translate(364,256)"/>
<path d="M0 0 C1.32 0 2.64 0 4 0 C3.67 1.32 3.34 2.64 3 4 C2.34 4 1.68 4 1 4 C0.67 4.99 0.34 5.98 0 7 C0 4.69 0 2.38 0 0 Z " fill="#7B7B7B" transform="translate(325,256)"/>
<path d="M0 0 C1.32 0 2.64 0 4 0 C3.67 1.32 3.34 2.64 3 4 C2.34 4 1.68 4 1 4 C0.67 4.99 0.34 5.98 0 7 C0 4.69 0 2.38 0 0 Z " fill="#7B7B7B" transform="translate(304,256)"/>
<path d="M0 0 C1.32 0 2.64 0 4 0 C3.67 1.32 3.34 2.64 3 4 C2.34 4 1.68 4 1 4 C0.67 4.99 0.34 5.98 0 7 C0 4.69 0 2.38 0 0 Z " fill="#8A8A8A" transform="translate(129,256)"/>
<path d="M0 0 C1.32 0 2.64 0 4 0 C3.67 1.32 3.34 2.64 3 4 C2.34 4 1.68 4 1 4 C0.67 4.99 0.34 5.98 0 7 C0 4.69 0 2.38 0 0 Z " fill="#7B7B7B" transform="translate(60,256)"/>
</svg>
